<svg viewBox="0 0 1680 1150" xmlns="http://www.w3.org/2000/svg">
<defs>
<marker id="arrow" markerWidth="12" markerHeight="12" refX="9" refY="4" orient="auto" markerUnits="strokeWidth"><path d="M0 0 L10 4 L0 8 z"/></marker>
</defs>

<!-- Canvas background -->
<rect x="0" y="0" width="1680" height="1150" fill="#E4D2C4"/>

<!-- Title -->
<text x="60" y="52" font-size="28" font-weight="700" fill="#1F1A14">Token 平台分层产品架构图</text>

<!-- Legend -->
<rect x="60" y="72" width="18" height="18" rx="3" fill="#04B24F"/>
<text x="84" y="86" font-size="14" fill="#1F1A14">P0 先做</text>
<rect x="170" y="72" width="18" height="18" rx="3" fill="#E8C36A"/>
<text x="194" y="86" font-size="14" fill="#1F1A14">P1 紧接</text>
<rect x="280" y="72" width="18" height="18" rx="3" fill="#C4B8A8"/>
<text x="304" y="86" font-size="14" fill="#1F1A14">P2 有余力</text>
<text x="420" y="86" font-size="14" fill="#1F1A14">✅ 已有　🔨 要做</text>

<!-- ===== LAYER 5: Customer Access (top) ===== -->
<rect x="60" y="110" width="1560" height="80" rx="6" fill="#044D99"/>
<text x="84" y="142" font-size="18" font-weight="600" fill="#1F1A14">⑤ 客户接入层（to B 企业客户）</text>
<text x="84" y="170" font-size="14" fill="#1F1A14">企业客户登录 · 自助看用量/账单/流量 · API Key 管理</text>

<!-- Arrow 5→4 -->
<line x1="840" y1="190" x2="840" y2="220" stroke="#1F1A14" stroke-width="2.5" marker-end="url(#arrow)"/>

<!-- ===== LAYER 4: Operations Strategy ===== -->
<rect x="60" y="220" width="1560" height="220" rx="6" fill="#D8C8B8"/>
<text x="84" y="254" font-size="18" font-weight="600" fill="#1F1A14">④ 运营策略层（决定挣不挣钱的核心）</text>

<!-- Row 1 of cards -->
<rect x="84" y="274" width="180" height="44" rx="6" fill="#04B24F"/>
<text x="174" y="300" text-anchor="middle" font-size="14" font-weight="500" fill="#1F1A14">定价/计价 🔨P0</text>

<rect x="280" y="274" width="180" height="44" rx="6" fill="#04B24F"/>
<text x="370" y="300" text-anchor="middle" font-size="14" font-weight="500" fill="#1F1A14">收入测算 🔨P0</text>

<rect x="476" y="274" width="180" height="44" rx="6" fill="#E8C36A"/>
<text x="566" y="300" text-anchor="middle" font-size="14" font-weight="500" fill="#1F1A14">超卖看板 🔨P1</text>

<rect x="672" y="274" width="180" height="44" rx="6" fill="#E8C36A"/>
<text x="762" y="300" text-anchor="middle" font-size="14" font-weight="500" fill="#1F1A14">限流/分层 🔨P1</text>

<!-- Row 2 of cards -->
<rect x="84" y="330" width="180" height="44" rx="6" fill="#E8C36A"/>
<text x="174" y="356" text-anchor="middle" font-size="14" font-weight="500" fill="#1F1A14">模型路由 🔨P1</text>

<rect x="280" y="330" width="180" height="44" rx="6" fill="#C4B8A8"/>
<text x="370" y="356" text-anchor="middle" font-size="14" font-weight="500" fill="#1F1A14">SLA溢价 🔨P2</text>

<rect x="476" y="330" width="210" height="44" rx="6" fill="#C4B8A8"/>
<text x="581" y="356" text-anchor="middle" font-size="14" font-weight="500" fill="#1F1A14">大客户定制 🔨P2</text>

<!-- Arrow 4→3 -->
<line x1="840" y1="440" x2="840" y2="470" stroke="#1F1A14" stroke-width="2.5" marker-end="url(#arrow)"/>

<!-- ===== LAYER 3: Platform Access / Billing ===== -->
<rect x="60" y="470" width="1560" height="110" rx="6" fill="#044D99"/>
<text x="84" y="504" font-size="18" font-weight="600" fill="#1F1A14">③ 平台接入/计费层（New API 已有底座）</text>
<text x="84" y="534" font-size="14" fill="#1F1A14">令牌发放 ✅ · 基础计量 ✅ · OpenAI兼容接口 ✅ · 调用转发 ✅</text>
<text x="84" y="560" font-size="14" fill="#1F1A14">→ 需在此基础上「模改」，把运营策略层功能做进去</text>

<!-- Arrow 3→2 -->
<line x1="840" y1="580" x2="840" y2="610" stroke="#1F1A14" stroke-width="2.5" marker-end="url(#arrow)"/>

<!-- ===== LAYER 2: Inference Service ===== -->
<rect x="60" y="610" width="1560" height="90" rx="6" fill="#5A96CC"/>
<text x="84" y="644" font-size="18" font-weight="600" fill="#1F1A14">② 推理服务层（技术底子已成熟 ✅）</text>
<text x="84" y="672" font-size="14" fill="#1F1A14">PD分离 · 上下文优化 · TTFT/TPUT优化 · 头部模型(悟空5.1/5.2 等)</text>

<!-- Arrow 2→1 -->
<line x1="840" y1="700" x2="840" y2="730" stroke="#1F1A14" stroke-width="2.5" marker-end="url(#arrow)"/>

<!-- ===== LAYER 1: Compute Resources (bottom) ===== -->
<rect x="60" y="730" width="1560" height="90" rx="6" fill="#04B24F"/>
<text x="84" y="764" font-size="18" font-weight="600" fill="#1F1A14">① 算力资源层（自持，已成熟 ✅）</text>
<text x="84" y="792" font-size="14" fill="#1F1A14">IDC机房 · GPU服务器(GB300) · 算力集群 · 调度层</text>

<!-- Bottom notes -->
<text x="840" y="860" text-anchor="middle" font-size="15" fill="#1F1A14">自底向上：算力 → 推理 → 计费 → 运营 → 客户，每一层向上支撑</text>
<text x="840" y="888" text-anchor="middle" font-size="15" font-weight="600" fill="#1F1A14">你的主战场是④运营策略层（绿+黄），底下三层公司已基本就绪</text>

</svg>